<svg width="131" height="29" viewBox="0 0 131 29" version="1.1"><g data-name="Canvas" fill="none"><g data-name="Logo"><g data-name="Branding/Logo/Icon"><g data-name="Vector"><g transform="translate(9.80469 0)"><path d="M 0 0L 0 6.67648L 9.88249 13.904C 9.97264 13.9721 10.0461 14.0616 10.0967 14.1652C 10.1473 14.2688 10.1737 14.3836 10.1737 14.5C 10.1737 14.6164 10.1473 14.7312 10.0967 14.8348C 10.0461 14.9384 9.97264 15.0279 9.88249 15.096L 0 22.3235L 0 29L 18.8341 15.2246C 18.9455 15.1428 19.0364 15.034 19.0992 14.9076C 19.162 14.7811 19.1948 14.6407 19.1948 14.4982C 19.1948 14.3556 19.162 14.2152 19.0992 14.0887C 19.0364 13.9623 18.9455 13.8536 18.8341 13.7717L 0 0Z" fill="#1FAAE2"></path></g></g><g data-name="Vector"><g transform="translate(4.27393 4.8783)"><path d="M -1.07004e-07 -1.34525e-06L -1.07004e-07 5.12629L 5.36638 9.05136C 5.45788 9.118 5.53262 9.20685 5.58424 9.31032C 5.63586 9.41378 5.66283 9.5288 5.66283 9.64554C 5.66283 9.76229 5.63586 9.87731 5.58424 9.98077C 5.53262 10.0842 5.45788 10.1731 5.36638 10.2397L -1.07004e-07 14.1648L -1.07004e-07 19.2911L 12.2037 10.372C 12.3154 10.2906 12.4067 10.1821 12.4697 10.0558C 12.5328 9.92947 12.5657 9.78903 12.5657 9.64646C 12.5657 9.5039 12.5328 9.36346 12.4697 9.23712C 12.4067 9.11078 12.3154 9.00231 12.2037 8.92096L -1.07004e-07 -1.34525e-06Z" fill="#1FAAE2"></path></g></g><g data-name="Vector"><g transform="translate(0 9.05518)"><path d="M -1.33755e-07 -2.01788e-06L -1.33755e-07 3.22895L 2.16163 4.80854C 2.25178 4.8766 2.32519 4.96614 2.37582 5.06976C 2.42646 5.17339 2.45286 5.28814 2.45286 5.40455C 2.45286 5.52096 2.42646 5.63571 2.37582 5.73934C 2.32519 5.84296 2.25178 5.9325 2.16163 6.00056L -1.33755e-07 7.58198L -1.33755e-07 10.8091L 6.40074 6.1273C 6.51212 6.0463 6.60313 5.93825 6.66599 5.81239C 6.72884 5.68653 6.76167 5.5466 6.76167 5.40455C 6.76167 5.2625 6.72884 5.12256 6.66599 4.9967C 6.60313 4.87084 6.51212 4.7628 6.40074 4.6818L -1.33755e-07 -2.01788e-06Z" fill="#1FAAE2"></path></g></g></g><g data-name="Branding/Logo/Wordmark"><g data-name="Vector"><g transform="translate(37 8.12183)"><path d="M 11.5799 10.2492C 11.5957 10.7637 11.4793 11.2741 11.2409 11.7352C 11.0026 12.1963 10.6496 12.5939 10.2133 12.8928C 9.76607 13.2017 9.26527 13.4318 8.73425 13.5724C 8.15201 13.7316 7.54917 13.8105 6.94381 13.8067L -2.11169e-07 13.8067L -2.11169e-07 0.000214683L 7.69285 0.000214683C 8.16471 -0.00542311 8.63068 0.101332 9.04909 0.310939C 9.44729 0.511502 9.80009 0.785987 10.087 1.11849C 10.3731 1.45478 10.5956 1.83664 10.7444 2.24674C 10.9389 2.76357 11.0133 3.31499 10.9625 3.86237C 10.9117 4.40975 10.7369 4.93984 10.4503 5.41547C 10.1021 6.00369 9.5615 6.46511 8.91243 6.72816C 9.6881 6.93132 10.3737 7.37172 10.8655 7.98269C 11.3406 8.58641 11.5788 9.3419 11.5799 10.2492ZM 2.79378 2.30323L 2.79378 5.77604L 6.51825 5.77604C 6.74248 5.78097 6.96543 5.74213 7.17357 5.66188C 7.38172 5.58162 7.57074 5.46161 7.72918 5.30912C 7.89919 5.1395 8.031 4.93807 8.11642 4.71737C 8.20184 4.49667 8.23902 4.26145 8.22566 4.02634C 8.25119 3.56402 8.08797 3.11037 7.7707 2.76184C 7.62873 2.61155 7.45497 2.49214 7.26104 2.41161C 7.06711 2.33109 6.85751 2.2913 6.64627 2.29493L 2.79378 2.30323ZM 8.76539 9.75067C 8.76548 9.50856 8.72097 9.26835 8.63392 9.04115C 8.55216 8.82527 8.43219 8.62458 8.27929 8.44795C 8.13578 8.28305 7.95931 8.14744 7.76032 8.04915C 7.55263 7.95114 7.32398 7.90107 7.09258 7.90293L 2.79378 7.90293L 2.79378 11.5402L 6.94554 11.5402C 7.19201 11.5423 7.43631 11.4959 7.66344 11.404C 7.88061 11.3163 8.07713 11.1875 8.24123 11.0251C 8.4052 10.858 8.53543 10.663 8.62527 10.4502C 8.72123 10.2258 8.76889 9.98497 8.76539 9.74236L 8.76539 9.75067Z" fill="#1FAAE2"></path></g></g><g data-name="Vector"><g transform="translate(50.374 8.12183)"><path d="M -2.32286e-06 13.7915L -2.32286e-06 1.82552e-06L 2.79378 1.82552e-06L 2.79378 13.7915L -2.32286e-06 13.7915Z" fill="#1FAAE2"></path></g></g><g data-name="Vector"><g transform="translate(54.9473 8.12183)"><path d="M 11.964 2.35287L 7.39011 2.35287L 7.39011 13.8065L 4.59633 13.8065L 4.59633 2.35287L -2.11169e-07 2.35287L -2.11169e-07 2.43403e-06L 11.964 2.43403e-06L 11.964 2.35287Z" fill="#1FAAE2"></path></g></g><g data-name="Vector"><g transform="translate(68.7227 8.12183)"><path d="M 11.7218 13.8065L 11.7218 4.66752L 8.01635 11.4802L 6.4975 11.4802L 2.79379 4.66752L 2.79379 13.8065L -2.53403e-06 13.8065L -2.53403e-06 2.43403e-06L 2.99618 2.43403e-06L 7.24654 7.8562L 11.5384 2.43403e-06L 14.5121 2.43403e-06L 14.5121 13.8065L 11.7218 13.8065Z" fill="#1FAAE2"></path></g></g><g data-name="Vector"><g transform="translate(85.4048 8)"><path d="M 6.7933 13.9996C 5.83548 14.0106 4.88806 13.8081 4.02547 13.408C 3.20559 13.0251 2.47296 12.4897 1.87002 11.8328C 1.26755 11.173 0.798247 10.4111 0.486104 9.58628C 0.165097 8.75855 0.000481844 7.88242 2.97511e-06 6.99912C -0.000128988 5.19598 0.696438 3.45696 1.95478 2.11891C 2.56756 1.4716 3.30703 0.946507 4.131 0.573596C 4.98502 0.187598 5.9187 -0.00835579 6.8625 0.000331086C 7.82254 -0.00951432 8.77125 0.200077 9.63034 0.61181C 10.4479 1.00669 11.1768 1.55207 11.7754 2.21695C 12.3753 2.88172 12.8442 3.64577 13.1593 4.47178C 13.4791 5.29293 13.6437 6.1623 13.6454 7.039C 13.6483 7.94114 13.4721 8.83553 13.1265 9.67435C 12.7951 10.4905 12.3114 11.2416 11.6993 11.891C 11.0894 12.5345 10.3534 13.0562 9.53346 13.4263C 8.67671 13.8133 7.73999 14.0092 6.7933 13.9996ZM 2.80589 6.99912C 2.80461 7.58627 2.89678 8.17015 3.07922 8.73054C 3.25164 9.26534 3.52231 9.76618 3.87843 10.2094C 4.21862 10.6359 4.64976 10.9877 5.14298 11.2413C 5.66669 11.5063 6.2516 11.6401 6.84347 11.6301C 7.44014 11.6421 8.02977 11.5046 8.55435 11.2313C 9.04316 10.9675 9.46731 10.606 9.79813 10.1712C 10.1408 9.72107 10.4012 9.21815 10.5679 8.68402C 10.7421 8.13858 10.8307 7.57129 10.8309 7.00078C 10.8318 6.41344 10.7361 5.82964 10.5472 5.27103C 10.3717 4.73794 10.1013 4.23813 9.74797 3.79384C 9.41 3.37107 8.98178 3.02263 8.49206 2.77193C 7.97552 2.51575 7.40045 2.3878 6.81925 2.39973C 6.22259 2.38774 5.63296 2.52518 5.10838 2.79852C 4.61939 3.06173 4.19238 3.41928 3.85421 3.84867C 3.50467 4.29314 3.24047 4.79393 3.07402 5.32752C 2.89899 5.8689 2.80863 6.43224 2.80589 6.99912Z" fill="#1FAAE2"></path></g></g><g data-name="Vector"><g transform="translate(112.758 8.12183)"><path d="M 4.22338e-07 13.7915L 4.22338e-07 1.82552e-06L 2.79378 1.82552e-06L 2.79378 13.7915L 4.22338e-07 13.7915Z" fill="#1FAAE2"></path></g></g><g data-name="Vector"><g transform="translate(118.547 8.12183)"><path d="M 2.79378 4.96163L 2.79378 13.8098L -4.64571e-06 13.8098L -4.64571e-06 2.43403e-06L 2.16583 2.43403e-06L 9.65973 9.06253L 9.65973 0.0199412L 12.4535 0.0199412L 12.4535 13.8115L 10.1787 13.8115L 2.79378 4.96163Z" fill="#1FAAE2"></path></g></g><g data-name="Vector"><g transform="translate(99.061 8.12183)"><path d="M 9.45734 1.62269e-06L 6.18438 8.88474L 2.87855 1.62269e-06L -1.68935e-06 1.62269e-06L 5.39555 13.1917C 5.4609 13.3519 5.575 13.4894 5.72297 13.5864C 5.87094 13.6833 6.04591 13.7352 6.22503 13.7352C 6.40415 13.7352 6.57912 13.6833 6.72709 13.5864C 6.87506 13.4894 6.98917 13.3519 7.05452 13.1917L 12.3428 0.00664449L 9.45734 1.62269e-06Z" fill="#1FAAE2"></path></g></g></g></g></g></svg>
